<?xml version="1.0" encoding="utf-8"?>
<!-- Generator: Adobe Illustrator 26.0.1, SVG Export Plug-In . SVG Version: 6.00 Build 0)  -->
<svg version="1.1" id="Layer_1" xmlns="http://www.w3.org/2000/svg" xmlns:xlink="http://www.w3.org/1999/xlink" x="0px" y="0px"
	 viewBox="0 0 512 512" style="enable-background:new 0 0 512 512;" xml:space="preserve">
<style type="text/css">
	.st0{fill-rule:evenodd;clip-rule:evenodd;fill:#FFFFFF;}
</style>
<path class="st0" d="M256.2,0C115.2,0,0,115.2,0,256.2C0,396.8,115.2,512,256.2,512C396.8,512,512,396.8,512,256.2
	C512,115.2,396.8,0,256.2,0z M176,400h-48.1V176H176V400z M151.9,143.8c-17.7,0-32.2-14.1-32.2-31.7c0-17.7,14.5-32.2,32.2-32.2
	c17.7,0,32.2,14.5,32.2,32.2C184.1,129.7,169.6,143.8,151.9,143.8z M400,400h-48.1V272.1c0-30.8-11.3-48.1-37.6-48.1
	s-58,22.2-58,48.1V400h-48.1V176h48.1v32.2c15.9-16.3,39.4-32.2,73-32.2c42.6,0,70.7,24.9,70.7,80.3V400z"/>
</svg>
