<?xml version="1.0" encoding="utf-8"?>
<svg xmlns="http://www.w3.org/2000/svg" xmlns:xlink="http://www.w3.org/1999/xlink" style="margin: auto; background: rgba(255, 255, 255, 0); display: block; shape-rendering: auto;" width="207px" height="207px" viewBox="0 0 100 100" preserveAspectRatio="xMidYMid">
<g transform="rotate(0 50 50)">
  <rect x="47.5" y="31.5" rx="2.5" ry="2.86" width="5" height="11" fill="#ffffff">
    <animate attributeName="opacity" values="1;0" keyTimes="0;1" dur="1.1764705882352942s" begin="-1.0457516339869282s" repeatCount="indefinite"></animate>
  </rect>
</g><g transform="rotate(40 50 50)">
  <rect x="47.5" y="31.5" rx="2.5" ry="2.86" width="5" height="11" fill="#ffffff">
    <animate attributeName="opacity" values="1;0" keyTimes="0;1" dur="1.1764705882352942s" begin="-0.9150326797385622s" repeatCount="indefinite"></animate>
  </rect>
</g><g transform="rotate(80 50 50)">
  <rect x="47.5" y="31.5" rx="2.5" ry="2.86" width="5" height="11" fill="#ffffff">
    <animate attributeName="opacity" values="1;0" keyTimes="0;1" dur="1.1764705882352942s" begin="-0.7843137254901962s" repeatCount="indefinite"></animate>
  </rect>
</g><g transform="rotate(120 50 50)">
  <rect x="47.5" y="31.5" rx="2.5" ry="2.86" width="5" height="11" fill="#ffffff">
    <animate attributeName="opacity" values="1;0" keyTimes="0;1" dur="1.1764705882352942s" begin="-0.6535947712418301s" repeatCount="indefinite"></animate>
  </rect>
</g><g transform="rotate(160 50 50)">
  <rect x="47.5" y="31.5" rx="2.5" ry="2.86" width="5" height="11" fill="#ffffff">
    <animate attributeName="opacity" values="1;0" keyTimes="0;1" dur="1.1764705882352942s" begin="-0.5228758169934641s" repeatCount="indefinite"></animate>
  </rect>
</g><g transform="rotate(200 50 50)">
  <rect x="47.5" y="31.5" rx="2.5" ry="2.86" width="5" height="11" fill="#ffffff">
    <animate attributeName="opacity" values="1;0" keyTimes="0;1" dur="1.1764705882352942s" begin="-0.3921568627450981s" repeatCount="indefinite"></animate>
  </rect>
</g><g transform="rotate(240 50 50)">
  <rect x="47.5" y="31.5" rx="2.5" ry="2.86" width="5" height="11" fill="#ffffff">
    <animate attributeName="opacity" values="1;0" keyTimes="0;1" dur="1.1764705882352942s" begin="-0.26143790849673204s" repeatCount="indefinite"></animate>
  </rect>
</g><g transform="rotate(280 50 50)">
  <rect x="47.5" y="31.5" rx="2.5" ry="2.86" width="5" height="11" fill="#ffffff">
    <animate attributeName="opacity" values="1;0" keyTimes="0;1" dur="1.1764705882352942s" begin="-0.13071895424836602s" repeatCount="indefinite"></animate>
  </rect>
</g><g transform="rotate(320 50 50)">
  <rect x="47.5" y="31.5" rx="2.5" ry="2.86" width="5" height="11" fill="#ffffff">
    <animate attributeName="opacity" values="1;0" keyTimes="0;1" dur="1.1764705882352942s" begin="0s" repeatCount="indefinite"></animate>
  </rect>
</g>
<!-- [ldio] generated by https://loading.io/ --></svg>