<?xml version="1.0" encoding="utf-8"?>
<!-- Generator: Adobe Illustrator 26.0.1, SVG Export Plug-In . SVG Version: 6.00 Build 0)  -->
<svg version="1.1" id="Layer_1" xmlns="http://www.w3.org/2000/svg" xmlns:xlink="http://www.w3.org/1999/xlink" x="0px" y="0px"
	 viewBox="0 0 247.37 37.88" style="enable-background:new 0 0 247.37 37.88;" xml:space="preserve">
<style type="text/css">
	.st0{fill:#FFFFFF;}
</style>
<g>
	<path class="st0" d="M243.32,29.83h-3.23c-1.57-0.86-2.43-1.62-3.34-2.42c-0.78-0.69-1.59-1.4-2.78-2.15
		c-1.22-0.76-2.45-1.28-3.53-1.75c-1.21-0.52-2.25-0.97-2.81-1.53c-1.61-1.61-5.2-3.28-5.98-3.64l-16.98-9.93
		c-0.32-0.19-0.68-0.29-1.06-0.29c-22.81,0-34.74-2.93-44.33-5.29C153.09,1.32,147.74,0,141.23,0c-9.34,0-14.79,4.87-17.44,8.22
		C121.32,4.83,116.07,0,106.14,0c-6.51,0-11.86,1.32-18.06,2.84C78.49,5.2,66.56,8.13,43.75,8.13c-0.37,0-0.74,0.1-1.06,0.29
		l-16.98,9.93c-0.78,0.35-4.37,2.03-5.98,3.64c-0.56,0.56-1.6,1.01-2.81,1.53c-1.08,0.46-2.3,0.99-3.53,1.75
		c-1.2,0.74-2,1.46-2.78,2.15c-0.91,0.8-1.77,1.56-3.34,2.42H4.05C2.36,29.83,0,31.07,0,33.08c0,0.98,0.59,1.84,1.53,2.26
		c0.49,0.22,1.09,0.32,1.82,0.32h107.21c0.45,0,0.93,0.16,1.81,0.47c1.95,0.69,4.91,1.73,11.32,1.73c6.41,0,9.37-1.04,11.32-1.73
		c0.88-0.31,1.36-0.47,1.81-0.47h107.21c0.74,0,1.33-0.11,1.82-0.32c0.94-0.42,1.53-1.29,1.53-2.26
		C247.37,31.07,245.01,29.83,243.32,29.83z M232.87,27.04c0.51,0.32,0.94,0.63,1.34,0.94l-22.22-0.41l23.81,1.78
		c0.43,0.37,0.89,0.75,1.43,1.15c-15.68-0.15-97.1-0.93-99.78-0.93c-2.96,0-5.75,1-5.75,1s-0.26-0.12-0.75-0.3
		c0.14-0.2,0.26-0.41,0.42-0.6c0.3-0.4,0.66-0.77,1.02-1.14c0.39-0.34,0.76-0.71,1.19-1.01l0.63-0.48l0.66-0.43
		c1.79-1.14,3.74-2.05,5.76-2.79c1.01-0.37,2.04-0.68,3.08-1c1.05-0.26,2.09-0.57,3.15-0.8c1.06-0.21,2.12-0.46,3.19-0.64l3.22-0.51
		l-3.24,0.34c-1.08,0.12-2.15,0.32-3.23,0.47c-1.08,0.17-2.14,0.42-3.21,0.63c-1.06,0.27-2.12,0.53-3.17,0.85
		c-2.1,0.64-4.15,1.46-6.08,2.56l-0.72,0.42l-0.69,0.47c-0.47,0.3-0.9,0.67-1.34,1.03c-0.42,0.38-0.84,0.77-1.21,1.22
		c-0.27,0.33-0.51,0.63-0.74,1.01c-0.57-0.15-1.25-0.3-2.04-0.42c0.03-0.41,0.06-0.83,0.11-1.24c0.09-0.7,0.22-1.4,0.38-2.09
		c0.16-0.69,0.37-1.38,0.62-2.05c0.24-0.68,0.56-1.33,0.91-1.97c-0.49,0.54-0.96,1.11-1.37,1.73c-0.41,0.62-0.8,1.26-1.14,1.93
		c-0.34,0.67-0.65,1.36-0.92,2.06c-0.18,0.47-0.34,0.93-0.48,1.41c-0.4-0.03-0.82-0.05-1.26-0.07c0.63-6.96,6.5-19.1,22.65-19.1
		c7.33,0,15.66,1.41,25.31,3.04c12.74,2.16,27.16,4.59,44.11,4.68l3.96,2.32c-2.56,0.02-5.12-0.04-7.68-0.23
		c-3.86-0.27-7.72-0.71-11.58-1.13c-3.86-0.42-7.73-0.82-11.6-1.18c-3.87-0.37-7.74-0.67-11.61-0.97c3.86,0.41,7.72,0.83,11.58,1.32
		c3.85,0.47,7.7,0.99,11.55,1.52c3.85,0.53,7.69,1.08,11.58,1.48c3.43,0.35,6.89,0.5,10.35,0.48c1.14,0.61,2.4,1.38,3.11,2.09
		C227.64,24.95,230.34,25.47,232.87,27.04z M120.14,30.64c1.16-0.25,2.36-0.36,3.55-0.36c1.19,0.01,2.38,0.12,3.55,0.36
		c1.16,0.25,2.31,0.62,3.33,1.22c-1.13-0.34-2.28-0.53-3.42-0.68c-1.15-0.13-2.3-0.21-3.46-0.2c-1.15,0-2.31,0.07-3.46,0.2
		c-1.14,0.16-2.29,0.34-3.42,0.68C117.83,31.27,118.98,30.89,120.14,30.64z M123.41,17.67c0.01-1.31,0.01-2.62,0.06-3.93
		c0.04-1.31,0.1-2.62,0.21-3.93c0.12,1.31,0.17,2.62,0.21,3.93c0.05,1.31,0.06,2.62,0.06,3.93c-0.01,1.31-0.01,2.62-0.07,3.93
		c-0.04,1.31-0.1,2.62-0.21,3.93c-0.11-1.31-0.17-2.62-0.21-3.93C123.42,20.29,123.41,18.98,123.41,17.67z M141.23,2.09
		c15.92,0,24.4,8.13,62.39,8.13l10.47,6.12c-15.79-0.29-29.38-2.59-41.45-4.63c-9.71-1.64-18.1-3.06-25.54-3.06
		c-9.62,0-15.79,4.08-19.49,8.97c0.09-2.95-0.61-5.17-1.12-6.96c0.14,0.31,0.27,0.63,0.4,0.95c0.49,1.25,0.9,2.54,1.05,3.9
		c0.08-1.36-0.1-2.75-0.38-4.1c-0.23-1.1-0.54-2.19-0.93-3.27C129.32,5.34,133.98,2.09,141.23,2.09z M43.75,10.22
		c37.99,0,46.47-8.13,62.39-8.13c7.69,0,12.28,3.18,14.82,5.98c0.29,1.5-0.39,3.34-0.78,5.91c-0.03-1.44,0.06-2.89,0.26-4.34
		c-0.43,1.39-0.76,2.83-0.96,4.3c-0.14,0.98-0.22,1.97-0.29,2.96c-3.75-4.56-9.78-8.24-18.91-8.24c-7.44,0-15.83,1.42-25.54,3.06
		c-12.07,2.04-25.66,4.34-41.45,4.63L43.75,10.22z M11.54,29.39l24.26-1.81l-22.64,0.42c0.4-0.32,0.83-0.63,1.34-0.95
		c2.53-1.57,5.23-2.09,6.71-3.57c0.7-0.7,1.96-1.47,3.1-2.08c2.87,0.03,5.75,0.02,8.62-0.09c3.19-0.11,6.37-0.34,9.54-0.63
		c6.34-0.59,12.64-1.34,18.96-2.01c-6.34,0.44-12.68,0.96-19.01,1.32c-3.17,0.17-6.34,0.28-9.5,0.28c-2.03,0-4.06-0.05-6.09-0.12
		l4.04-2.36c16.95-0.09,31.37-2.52,44.11-4.68c9.65-1.63,17.98-3.04,25.31-3.04c16.16,0,22.02,12.14,22.65,19.1
		c-0.38,0.01-0.74,0.03-1.09,0.05c-0.5-1.86-1.26-3.55-2.19-5.18c-1.08-1.84-2.36-3.57-3.88-5.06c-0.35-0.4-0.78-0.72-1.17-1.08
		c-0.39-0.35-0.78-0.71-1.22-1.01l-1.27-0.95c-0.44-0.29-0.9-0.55-1.35-0.83c-0.88-0.59-1.86-0.99-2.79-1.47
		c-0.95-0.44-1.95-0.77-2.92-1.16c0.95,0.44,1.92,0.83,2.85,1.32c0.9,0.53,1.85,0.98,2.68,1.61c0.43,0.3,0.86,0.59,1.28,0.89l1.2,1
		c0.41,0.32,0.77,0.69,1.14,1.06c0.36,0.37,0.76,0.71,1.07,1.11c1.4,1.52,2.53,3.26,3.47,5.08c0.78,1.53,1.4,3.18,1.76,4.81
		c-0.68,0.09-1.29,0.2-1.84,0.31c-0.05-0.08-0.1-0.15-0.15-0.23c-0.11-0.16-0.22-0.3-0.34-0.45c-0.23-0.28-0.47-0.56-0.72-0.81
		c-0.49-0.52-1.01-0.98-1.55-1.42c-1.08-0.88-2.23-1.62-3.42-2.27c-1.18-0.67-2.41-1.22-3.65-1.74l-1.88-0.71l-1.9-0.62l1.8,0.86
		l1.75,0.94c1.14,0.67,2.27,1.36,3.31,2.15c1.05,0.78,2.05,1.62,2.92,2.55c0.44,0.46,0.85,0.94,1.21,1.45
		c0.19,0.25,0.35,0.5,0.51,0.76l0.06,0.11c-0.62,0.21-0.95,0.37-0.95,0.37s-2.78-1-5.75-1c-2.68,0-84.1,0.78-99.78,0.93
		C10.67,30.12,11.12,29.75,11.54,29.39z M244.02,33.58c-2.49,0-101.54,0-107.01,0l-1.3-1.56l-0.57,1.88
		c-0.67,0.21-1.41,0.51-2.4,0.81l0.43-0.32c0.37-0.27,0.74-0.51,1.2-0.64c-0.47-0.13-0.99-0.07-1.47,0.05
		c-0.48,0.11-0.92,0.27-1.37,0.38c-0.87,0.26-1.72,0.47-2.58,0.6c-1.72,0.27-3.48,0.34-5.26,0.34c-1.78,0-3.54-0.07-5.26-0.34
		c-0.86-0.13-1.71-0.34-2.58-0.6c-0.44-0.12-0.89-0.28-1.37-0.38c-0.47-0.11-1-0.18-1.47-0.05c0.46,0.13,0.83,0.38,1.2,0.64
		l0.44,0.32c-0.99-0.3-1.74-0.59-2.41-0.81l-0.57-1.88l-1.3,1.56c-5.47,0-104.53,0-107.01,0c-2.53,0-0.7-1.66,0.7-1.66
		s3.75,0,3.75,0h0c2.96,0,102.82-0.53,104.26-0.17c5.15,1.27,3.78,2.88,11.63,2.88c7.85,0,6.48-1.6,11.63-2.88
		c1.44-0.36,101.29,0.17,104.26,0.17l0,0c0,0,2.35,0,3.75,0C244.72,31.92,246.55,33.58,244.02,33.58z"/>
	<path class="st0" d="M155.92,15.4l4.74,0.09c1.58,0.13,3.16,0.26,4.76,0.33c-1.55-0.37-3.12-0.69-4.69-1.01
		c-1.59-0.19-3.18-0.38-4.79-0.5c-3.21-0.08-6.46-0.01-9.64,0.71c-3.16,0.68-6.27,1.78-9.03,3.51c-1.37,0.88-2.68,1.84-3.82,3
		c-1.14,1.14-2.18,2.4-2.89,3.84c0.97-1.27,2.12-2.36,3.35-3.33c0.31-0.24,0.61-0.49,0.93-0.72l0.97-0.65
		c0.63-0.46,1.34-0.79,2.01-1.2c2.75-1.47,5.73-2.46,8.78-3.09c0.77-0.14,1.53-0.32,2.3-0.44l2.33-0.26
		c0.39-0.04,0.78-0.11,1.17-0.13l1.18-0.04C154.35,15.48,155.14,15.44,155.92,15.4z"/>
	<path class="st0" d="M172.52,24.92c-2.85-0.18-5.7-0.38-8.56-0.44l-2.15-0.03l-2.15,0.03c-1.43-0.01-2.87,0.12-4.3,0.19
		c-5.73,0.39-11.38,1.43-16.89,2.9c5.67-0.62,11.32-1.2,16.97-1.28c5.65-0.08,11.28,0.26,16.94,0.71l8.52,0.59
		c2.85,0.15,5.7,0.3,8.55,0.35c5.7,0.14,11.41,0.02,17.11-0.37c-5.69-0.48-11.36-0.82-17.02-1.26L172.52,24.92z"/>
	<path class="st0" d="M199.59,21.55c-2.59-0.41-5.18-0.82-7.78-1.19c-2.6-0.35-5.22-0.68-7.85-0.92c-1.31-0.12-2.63-0.19-3.95-0.29
		c-1.32-0.08-2.64-0.11-3.96-0.15c-5.28-0.1-10.57,0.25-15.76,1.12c5.26-0.01,10.48,0.11,15.68,0.5c5.19,0.41,10.36,1.07,15.54,1.82
		l7.78,1.08c2.6,0.33,5.2,0.69,7.82,0.94c5.23,0.55,10.48,0.91,15.74,0.92l-15.52-2.54L199.59,21.55z"/>
	<path class="st0" d="M80.06,15.23l3.07-0.13c1.02-0.07,2.04-0.02,3.07-0.02l3.06,0.03c1.02,0.01,2.03,0.12,3.05,0.18l1.52,0.1
		l0.76,0.05l0.75,0.11l3.02,0.4c1.01,0.13,1.98,0.41,2.98,0.6c0.49,0.11,1,0.18,1.48,0.33l1.45,0.43l1.46,0.43l1.41,0.55
		c0.47,0.19,0.95,0.35,1.41,0.57l1.35,0.68l0.68,0.34c0.22,0.13,0.43,0.26,0.64,0.4l1.29,0.81c1.65,1.16,3.21,2.53,4.28,4.3
		c-0.37-0.97-1-1.82-1.65-2.63c-0.35-0.38-0.68-0.79-1.06-1.15l-1.16-1.06c-0.41-0.32-0.84-0.62-1.26-0.93
		c-0.21-0.15-0.42-0.31-0.64-0.46l-0.68-0.4L109,17.96c-0.46-0.25-0.95-0.44-1.42-0.66c-3.83-1.71-7.94-2.67-12.08-3.13l-0.77-0.1
		l-0.78-0.04l-1.56-0.09c-1.04-0.04-2.07-0.15-3.11-0.14l-3.11,0.07c-1.04,0.03-2.07,0.02-3.1,0.15c-2.06,0.21-4.12,0.36-6.16,0.68
		c-2.03,0.37-4.07,0.7-6.09,1.12c2.06-0.1,4.11-0.29,6.16-0.44C78,15.26,79.03,15.27,80.06,15.23z"/>
	<path class="st0" d="M94.89,23.75c-1.13-0.1-2.26-0.2-3.39-0.25c-2.27-0.13-4.54-0.08-6.8-0.02c-4.53,0.24-8.99,0.77-13.43,1.32
		c-4.45,0.55-8.89,1.1-13.34,1.79c4.5,0.19,9,0.09,13.49-0.16c2.25-0.1,4.48-0.3,6.71-0.44c2.23-0.18,4.45-0.33,6.67-0.42
		c4.43-0.22,8.86-0.11,13.3,0.19c4.45,0.3,8.9,0.77,13.4,1.1c-4.35-1.18-8.76-2.1-13.23-2.71C97.14,23.99,96.02,23.82,94.89,23.75z"
		/>
	<path class="st0" d="M52.27,23.6l9.2-1.14c6.12-0.8,12.24-1.43,18.39-1.79c6.15-0.36,12.32-0.49,18.5-0.56
		c-6.16-0.47-12.36-0.7-18.55-0.52c-6.19,0.15-12.38,0.72-18.52,1.49c-6.13,0.79-12.24,1.65-18.37,2.38
		c-6.13,0.72-12.27,1.34-18.42,1.92c6.18-0.04,12.37-0.3,18.53-0.84C46.12,24.29,49.2,23.94,52.27,23.6z"/>
	<path class="st0" d="M179.15,28.7c-1.84-0.06-3.99-0.17-6.29-0.22c-2.3-0.06-4.76-0.12-7.21-0.18c-2.46-0.03-4.91-0.06-7.22-0.09
		c-2.3-0.03-4.45,0-6.3-0.01c-1.84,0-3.38,0.04-4.45,0.05c-1.08,0.02-1.69,0.04-1.69,0.04s0.61,0.04,1.69,0.1
		c1.07,0.05,2.61,0.14,4.45,0.21c1.84,0.06,3.99,0.17,6.29,0.22c2.3,0.06,4.76,0.12,7.21,0.18c2.46,0.03,4.91,0.06,7.22,0.09
		c2.3,0.03,4.45,0,6.3,0.01c1.84,0,3.38-0.04,4.45-0.05c1.08-0.02,1.69-0.04,1.69-0.04s-0.61-0.04-1.69-0.1
		C182.53,28.86,181,28.76,179.15,28.7z"/>
	<path class="st0" d="M157.99,22.48c2.16-0.14,4.69-0.14,7.4-0.02c2.71,0.12,5.58,0.41,8.46,0.74c2.88,0.31,5.76,0.63,8.47,0.92
		c2.7,0.3,5.23,0.52,7.39,0.74c2.16,0.22,3.97,0.36,5.24,0.47c1.27,0.1,1.99,0.16,1.99,0.16s-0.72-0.11-1.97-0.29
		c-1.26-0.17-3.05-0.45-5.21-0.73c-2.16-0.28-4.67-0.63-7.37-0.95c-2.7-0.32-5.58-0.67-8.46-1.01c-2.89-0.3-5.79-0.56-8.51-0.65
		c-2.73-0.1-5.28,0.03-7.45,0.23c-2.17,0.2-3.97,0.52-5.21,0.75c-1.25,0.25-1.95,0.42-1.95,0.42s0.72-0.12,1.97-0.28
		C154.02,22.8,155.82,22.62,157.99,22.48z"/>
	<path class="st0" d="M135.65,16.4c0.38-0.18,0.82-0.38,1.3-0.58c0.95-0.43,2.1-0.82,3.32-1.25c1.23-0.41,2.57-0.77,3.92-1.05
		c1.35-0.29,2.72-0.52,4.01-0.65c1.29-0.11,2.5-0.23,3.54-0.22c0.52-0.01,1-0.01,1.42,0c0.42,0,0.8,0,1.1,0.03
		c0.61,0.02,0.96,0.04,0.96,0.04s-0.34-0.06-0.95-0.17c-0.3-0.05-0.67-0.1-1.1-0.15c-0.42-0.06-0.91-0.11-1.43-0.13
		c-1.05-0.06-2.29-0.08-3.61,0.01c-1.32,0.11-2.72,0.3-4.1,0.57c-1.37,0.32-2.73,0.72-3.97,1.16c-1.24,0.46-2.36,0.98-3.29,1.47
		c-0.47,0.23-0.89,0.48-1.25,0.7c-0.37,0.22-0.68,0.42-0.94,0.59c-0.51,0.35-0.79,0.54-0.79,0.54s0.31-0.16,0.86-0.43
		C134.93,16.72,135.27,16.57,135.65,16.4z"/>
	<path class="st0" d="M92.86,28.03c-2.92,0.01-6.33-0.01-9.98,0.03c-3.65,0.03-7.54,0.07-11.44,0.11c-3.89,0.07-7.79,0.13-11.44,0.2
		c-3.65,0.06-7.06,0.17-9.98,0.24c-2.92,0.07-5.35,0.17-7.06,0.22c-1.7,0.07-2.68,0.1-2.68,0.1s0.97,0.01,2.68,0.03
		c1.7,0.01,4.14,0.04,7.06,0.03c2.92-0.01,6.33,0.01,9.98-0.03c3.65-0.03,7.54-0.07,11.44-0.11c3.89-0.07,7.79-0.13,11.44-0.2
		c3.65-0.06,7.06-0.17,9.98-0.24c2.92-0.07,5.35-0.17,7.06-0.22c1.7-0.07,2.68-0.1,2.68-0.1s-0.97-0.01-2.68-0.03
		C98.22,28.06,95.78,28.03,92.86,28.03z"/>
	<path class="st0" d="M60.14,24.75c1.78-0.2,3.67-0.41,5.57-0.62c1.89-0.24,3.78-0.48,5.56-0.71c1.77-0.22,3.42-0.49,4.84-0.69
		c1.42-0.2,2.59-0.41,3.42-0.54c0.82-0.14,1.29-0.22,1.29-0.22S80.34,22,79.5,22.06c-0.83,0.07-2.02,0.14-3.45,0.28
		c-1.42,0.14-3.09,0.27-4.86,0.48c-1.78,0.2-3.67,0.41-5.57,0.62c-1.89,0.24-3.78,0.49-5.56,0.71c-1.77,0.23-3.42,0.49-4.84,0.69
		c-1.42,0.2-2.59,0.41-3.42,0.54c-0.82,0.14-1.29,0.22-1.29,0.22s0.48-0.03,1.31-0.09c0.83-0.07,2.02-0.15,3.45-0.28
		C56.7,25.08,58.36,24.95,60.14,24.75z"/>
	<path class="st0" d="M73.58,17.68c1.61-0.16,3.49-0.23,5.51-0.33c2.02-0.08,4.17-0.1,6.32-0.06c2.15,0.03,4.3,0.12,6.31,0.26
		c2.01,0.16,3.89,0.3,5.49,0.5c1.6,0.19,2.94,0.35,3.88,0.49c0.94,0.13,1.47,0.2,1.47,0.2s-0.53-0.12-1.45-0.34
		c-0.92-0.2-2.24-0.5-3.85-0.75c-1.6-0.26-3.48-0.53-5.5-0.72c-2.02-0.18-4.19-0.3-6.35-0.36c-2.17-0.01-4.33,0.04-6.36,0.16
		c-2.03,0.13-3.91,0.33-5.52,0.55c-1.61,0.2-2.94,0.46-3.87,0.63c-0.93,0.19-1.46,0.29-1.46,0.29s0.54-0.06,1.48-0.16
		C70.63,17.94,71.97,17.82,73.58,17.68z"/>
</g>
</svg>
